<svg id="Layer_1" enable-background="new 0 0 512.001 512.001" height="512" viewBox="0 0 512.001 512.001" width="512" xmlns="http://www.w3.org/2000/svg"><g><path d="m58.965 495.688c-11.681 11.681-30.787 11.823-42.631-.021-3.041-3.041-5.296-6.569-6.76-10.324-4.455-11.37-1.704-24.855 8.026-33.524l138.6-122.365 26.347 26.347-122.365 138.6c-.396.439-.8.87-1.217 1.287z" fill="#51697a"/><path d="m58.965 495.688c-11.681 11.681-30.787 11.823-42.631-.021-3.041-3.041-5.296-6.569-6.76-10.324 10.854 4.25 23.631 1.938 32.308-6.739.417-.417.82-.849 1.216-1.287l122.365-138.6 17.084 17.084-122.365 138.6c-.396.439-.8.87-1.217 1.287z" fill="#354c5b"/><path d="m80.949 470.876-39.824-39.824 33.651-29.876 35.964 35.964z" fill="#5cd5ff"/><path d="m162.761 291.946h45.13v69.458h-45.13z" fill="#9aaeb7" transform="matrix(.707 -.707 .707 .707 -176.712 226.724)"/><path d="m452.051 313.2c-38.87 38.87-91.16 56.13-141.95 51.79-40.59-3.46-80.24-20.73-111.3-51.79-69.93-69.93-69.93-183.32 0-253.25 31.06-31.07 70.7-48.33 111.29-51.79 50.8-4.34 103.09 12.92 141.96 51.79 69.93 69.93 69.93 183.32 0 253.25z" fill="#51697a"/><path d="m452.051 313.2c-38.87 38.87-91.16 56.13-141.95 51.79 40.59-3.46 80.22-20.72 111.28-51.79 69.94-69.93 69.94-183.32 0-253.25-31.07-31.07-70.69-48.33-111.29-51.79 50.8-4.34 103.09 12.92 141.96 51.79 69.93 69.93 69.93 183.32 0 253.25z" fill="#354c5b"/><path d="m424.701 285.85c-31.23 31.23-73.52 44.67-114.27 40.31-30.78-3.28-60.69-16.72-84.28-40.31-54.82-54.83-54.82-143.72 0-198.55 23.59-23.6 53.5-37.04 84.28-40.32 40.75-4.36 83.04 9.09 114.27 40.32 54.83 54.83 54.83 143.72 0 198.55z" fill="#fff"/><path d="m424.701 285.85c-31.23 31.23-73.52 44.67-114.27 40.31 30.78-3.29 60.68-16.72 84.27-40.31 54.83-54.83 54.83-143.72 0-198.55-23.59-23.59-53.49-37.03-84.27-40.32 40.75-4.36 83.04 9.09 114.27 40.32 54.83 54.83 54.83 143.72 0 198.55z" fill="#e5f5f9"/><path d="m80.949 470.876-17.083-17.084 29.79-33.736 17.084 17.084z" fill="#5ab5ff"/><path d="m399.581 186.53c0 8.28-6.71 15-15 15h-44.2v44.2c0 8.28-6.71 15-15 15-8.28 0-15-6.72-15-15v-44.2h-44.2c-8.29 0-15-6.72-15-15 0-8.29 6.71-15 15-15h44.2v-44.2c0-8.29 6.72-15 15-15 8.29 0 15 6.71 15 15v44.2h44.2c8.29 0 15 6.71 15 15z" fill="#91ff31"/><g fill="#00ea80"><path d="m399.581 186.53c0 8.28-6.71 15-15 15h-27.79c8.29 0 15-6.72 15-15 0-8.29-6.71-15-15-15h27.79c8.29 0 15 6.71 15 15z"/><path d="m340.381 127.33v51.7h-15v-66.7c8.29 0 15 6.71 15 15z"/><path d="m340.381 194.13v51.6c0 8.28-6.71 15-15 15v-66.6z"/></g></g><g><g><path d="m457.355 54.646c-35.239-35.238-82.092-54.646-131.928-54.646s-96.688 19.408-131.927 54.646c-35.238 35.239-54.646 82.093-54.646 131.928 0 35.441 9.815 69.373 28.159 98.693l-27.504 27.504c-2.929 2.93-2.929 7.678 0 10.607l5.74 5.74-132.638 117.105c-7.819 6.966-12.292 16.566-12.595 27.034-.302 10.467 3.609 20.309 11.014 27.714 7.139 7.138 16.543 11.029 26.588 11.029.375 0 .75-.005 1.126-.016 10.468-.303 20.068-4.775 27.056-12.619l117.084-132.615 5.74 5.74c1.465 1.464 3.385 2.196 5.304 2.196s3.839-.732 5.304-2.196l27.562-27.562c29.834 18.554 64.192 28.194 98.874 28.193 27.127-.001 54.455-5.898 79.966-18.04 3.739-1.78 5.328-6.256 3.549-9.996-1.78-3.739-6.253-5.328-9.996-3.549-65.423 31.139-143.82 17.617-195.079-33.644-32.406-32.405-50.253-75.491-50.253-121.32s17.847-88.915 50.253-121.32c66.896-66.896 175.744-66.896 242.641 0 32.406 32.405 50.253 75.491 50.253 121.32s-17.847 88.915-50.253 121.32c-5.167 5.168-10.692 10.038-16.423 14.476-3.274 2.536-3.873 7.247-1.337 10.522 2.536 3.274 7.245 3.872 10.522 1.337 6.228-4.823 12.231-10.115 17.845-15.728 35.238-35.239 54.646-82.092 54.646-131.928-.001-49.832-19.409-96.686-54.647-131.925zm-402.778 434.767c-4.19 4.704-9.967 7.396-16.266 7.577-6.29.197-12.22-2.172-16.674-6.627-4.455-4.454-6.809-10.376-6.627-16.674.182-6.299 2.873-12.075 7.553-16.244l18.24-16.104 29.855 29.856zm26.029-29.482-28.536-28.537 22.478-19.845 25.904 25.904zm29.793-33.745-24.584-24.584 70.062-61.857 16.379 16.379zm83.101-107.685c6.51 6.51 13.423 12.46 20.669 17.838l-20.241 20.242-38.508-38.508 20.213-20.212c5.402 7.239 11.364 14.138 17.867 20.64z"/></g><path d="m187.356 159.919c-4.111-.55-7.886 2.31-8.448 6.413-.912 6.665-1.375 13.476-1.375 20.241 0 81.55 66.345 147.895 147.895 147.895 81.549 0 147.894-66.345 147.894-147.895 0-81.549-66.345-147.894-147.894-147.894-29.997 0-58.883 8.933-83.532 25.833-24.064 16.498-42.572 39.455-53.523 66.389-1.561 3.837.285 8.213 4.122 9.772 3.842 1.564 8.213-.286 9.772-4.122 9.841-24.203 26.478-44.836 48.11-59.668 22.142-15.18 48.094-23.204 75.051-23.204 73.277 0 132.894 59.616 132.894 132.894s-59.616 132.895-132.894 132.895-132.895-59.616-132.895-132.895c0-6.088.416-12.213 1.236-18.206.562-4.104-2.309-7.886-6.413-8.448z"/><path d="m325.381 104.826c-12.406 0-22.5 10.094-22.5 22.5v36.702h-36.702c-12.406 0-22.5 10.094-22.5 22.5s10.094 22.5 22.5 22.5h36.702v36.701c0 12.406 10.094 22.5 22.5 22.5s22.5-10.094 22.5-22.5v-36.701h36.702c12.406 0 22.5-10.094 22.5-22.5s-10.094-22.5-22.5-22.5h-36.702v-36.702c0-12.406-10.093-22.5-22.5-22.5zm59.203 74.203c4.136 0 7.5 3.364 7.5 7.5s-3.364 7.5-7.5 7.5h-44.202c-4.143 0-7.5 3.357-7.5 7.5v44.201c0 4.136-3.364 7.5-7.5 7.5s-7.5-3.364-7.5-7.5v-44.201c0-4.143-3.357-7.5-7.5-7.5h-44.202c-4.136 0-7.5-3.364-7.5-7.5s3.364-7.5 7.5-7.5h44.202c4.143 0 7.5-3.357 7.5-7.5v-44.202c0-4.136 3.364-7.5 7.5-7.5s7.5 3.364 7.5 7.5v44.202c0 4.143 3.357 7.5 7.5 7.5z"/></g></svg>