<svg id="Layer_1" enable-background="new 0 0 512.002 512.002" height="512" viewBox="0 0 512.002 512.002" width="512" xmlns="http://www.w3.org/2000/svg"><g><g clip-rule="evenodd" fill-rule="evenodd"><path d="m225.504 432.002h201.324c0-34.625 19.175-69.251 19.175-103.876 0-32.125 0-52.25 0-84.374 0-43.048-46.318-54.655-60.13-40.247-9.181-21.68-40.253-28.339-55.289-16.624-11.237-22.782-46.685-25.426-55.087-10.247l-2.058-94.63c-.359-16.496-12.943-30-28.761-30s-28.761 13.5-28.761 30v210.748c-33.784-17.25-25.709-42.365-62.223-50.239-23.267-5.018-44.169 15.216-35.816 27.844 5.912 8.937 17.82 19.545 29.142 50.627 22.663 62.209 78.484 48.739 78.484 111.018z" fill="#ffdcd5"/><path d="m426.827 432.002h-201.323-9.952v70h221.227v-70z" fill="#ff9346"/></g><g><path d="m456.002 328.125v-84.375c0-24.115-12.736-43.645-34.068-52.243-11.488-4.63-23.377-5.068-32.69-1.665-4.246-5.4-9.847-9.923-16.578-13.217-12.826-6.276-27.315-7.137-38.89-2.802-6.028-7.121-14.467-12.424-24.63-15.052-8.508-2.2-16.862-2.188-24.042-.278l-1.668-76.708c-.485-22.308-17.51-39.782-38.759-39.782-21.373 0-38.76 17.944-38.76 40v191.486c-4.031-4.004-7.021-8.23-10.101-12.583-7.645-10.807-16.311-23.057-40.015-28.168-20.077-4.331-37.367 5.621-44.936 16.699-5.986 8.762-6.482 18.645-1.328 26.437 1.521 2.299 3.3 4.587 5.185 7.009 6.172 7.935 14.625 18.801 22.902 41.523 11.53 31.65 31.444 45.932 47.446 57.407 15.434 11.068 27.093 19.44 29.821 40.223-5.213.342-9.339 4.667-9.339 9.967v70c0 5.523 4.477 10 10 10h221.227c5.522 0 10-4.477 10-10v-70c0-5.321-4.16-9.659-9.403-9.97 1.33-12.744 4.917-25.72 8.676-39.299 4.892-17.668 9.95-35.937 9.95-54.609zm-29.223 163.877h-201.227v-50h55.61c5.522 0 10-4.477 10-10s-4.478-10-10-10h-46.15c-3.123-31.205-20.97-44.024-38.287-56.443-15.188-10.893-30.895-22.155-40.309-48-9.354-25.676-19.315-38.482-25.908-46.958-1.713-2.203-3.193-4.105-4.291-5.764-.791-1.195.959-3.824 1.161-4.12 3.94-5.768 13.764-10.685 24.206-8.431 16.091 3.47 20.79 10.113 27.903 20.168 5.676 8.022 12.587 17.793 26.428 26.169v4.126c0 5.523 4.477 10 10 10s10-4.477 10-10v-220.746c0-11.028 8.416-20 18.761-20 10.104 0 18.521 9.069 18.763 20.217l2.876 132.249c.119 5.448 4.571 9.783 9.994 9.783.073 0 .147-.001.222-.002 5.521-.12 9.9-4.693 9.78-10.215l-.741-34.078c3.241-2.623 10.554-3.894 18.568-1.821 4.663 1.206 19.876 6.513 19.876 24.178 0 5.523 4.478 10 10 10s10-4.477 10-10c0-3.588-.4-7.062-1.171-10.384 6.195-1.562 14.205-.679 21.03 2.661 5.455 2.669 14.606 9.098 14.606 22.16 0 5.523 4.478 10 10 10s10-4.477 10-10c0-2.937-.28-5.808-.827-8.592 4.26-1.01 10.454-.66 16.804 1.899 6.478 2.611 21.545 11.12 21.545 33.692v84.375c0 15.954-4.48 32.137-9.225 49.27-4.015 14.498-8.133 29.406-9.484 44.606h-46.131c-5.522 0-10 4.477-10 10s4.478 10 10 10h55.616v50.001z"/><path d="m121.929 98.141h50.813c5.523 0 10-4.477 10-10s-4.477-10-10-10h-26.67l61.07-61.07c3.905-3.905 3.905-10.237 0-14.143s-10.237-3.905-14.143 0l-61.07 61.07v-26.67c0-5.523-4.477-10-10-10s-10 4.477-10 10v50.813c0 5.523 4.477 10 10 10z"/><path d="m134.141 196.745c0 5.523 4.477 10 10 10s10-4.477 10-10v-50.813c0-5.523-4.477-10-10-10h-50.813c-5.523 0-10 4.477-10 10s4.477 10 10 10h26.671l-61.07 61.07c-3.905 3.905-3.905 10.237 0 14.143 1.953 1.953 4.512 2.929 7.071 2.929s5.119-.977 7.071-2.929l61.07-61.069z"/><path d="m326.166 422.002h-.008c-5.522 0-9.996 4.477-9.996 10s4.481 10 10.004 10 10-4.477 10-10-4.478-10-10-10z"/></g></g></svg>