<?xml version="1.0" encoding="iso-8859-1"?>
<!-- Generator: Adobe Illustrator 19.0.0, SVG Export Plug-In . SVG Version: 6.00 Build 0)  -->
<svg version="1.1" id="Capa_1" xmlns="http://www.w3.org/2000/svg" xmlns:xlink="http://www.w3.org/1999/xlink" x="0px" y="0px"
	 viewBox="0 0 512 512" style="enable-background:new 0 0 512 512;" xml:space="preserve">
<path style="fill:#6099B1;" d="M505.127,45.754c-4.284-2.762-9.677-3.16-14.32-1.055L385.356,92.494l-257.104-56.99
	c-3.179-0.705-6.499-0.356-9.462,0.993L8.784,86.588C3.434,89.024,0,94.36,0,100.239v282.112c0,5.1,2.591,9.851,6.879,12.612
	c4.288,2.76,9.685,3.154,14.328,1.043l105.451-47.932l257.1,56.792c1.069,0.236,2.153,0.353,3.235,0.353
	c2.119,0,4.227-0.449,6.181-1.333l110.007-49.746c5.369-2.428,8.819-7.775,8.819-13.667V58.361
	C512,53.264,509.412,48.516,505.127,45.754z"/>
<path style="fill:#A8D3D8;" d="M256,63.821L128.253,35.505c-3.179-0.705-6.499-0.356-9.462,0.993L8.784,86.588
	C3.434,89.024,0,94.36,0,100.239v282.112c0,5.1,2.591,9.851,6.879,12.612c4.288,2.76,9.685,3.154,14.328,1.043l105.451-47.932
	l129.44,28.627L256,63.821z"/>
<path style="fill:#DEECF1;" d="M118.791,36.498L8.784,86.588C3.434,89.024,0,94.36,0,100.239v282.112
	c0,5.1,2.591,9.851,6.879,12.612c4.288,2.76,9.685,3.154,14.328,1.043l103.8-47.181V35.159
	C122.875,35.159,120.754,35.604,118.791,36.498z"/>
<path style="fill:#A8D3D8;" d="M505.127,45.754c-4.284-2.762-9.677-3.16-14.32-1.055L386.993,91.753V405.22l0,0
	c2.119,0,4.227-0.449,6.181-1.333l110.007-49.746c5.369-2.428,8.819-7.775,8.819-13.667V58.361
	C512,53.264,509.412,48.516,505.127,45.754z"/>
<path style="fill:#F2A01C;" d="M275,297.597h-37.554h-15v15v130.477c0,18.625,15.152,33.777,33.777,33.777S290,461.699,290,443.074
	V312.597v-15H275z"/>
<path style="fill:#FFC87D;" d="M256,297.597h-33.554v15v130.477c0,18.625,15.152,33.777,33.777,33.777L256,297.597z"/>
<circle style="fill:#5A5A5A;" cx="256" cy="254.35" r="93.81"/>
<path style="fill:#BFBFBF;" d="M256,348.159c-51.808,0-93.807-41.999-93.807-93.807s41.999-93.807,93.807-93.807V348.159z"/>
<circle style="fill:#A8D3D8;" cx="256" cy="254.35" r="58.2"/>
<path style="fill:#F0F0F0;" d="M256,312.552c-32.143,0-58.201-26.057-58.201-58.201S223.856,196.15,256,196.15V312.552z"/>
<g>
</g>
<g>
</g>
<g>
</g>
<g>
</g>
<g>
</g>
<g>
</g>
<g>
</g>
<g>
</g>
<g>
</g>
<g>
</g>
<g>
</g>
<g>
</g>
<g>
</g>
<g>
</g>
<g>
</g>
</svg>
